<svg width="39" height="26" viewBox="0 0 39 26" fill="none" xmlns="http://www.w3.org/2000/svg">
<path d="M28.3034 1.77426L32.8667 6.32619L14.171 24.9751C13.0503 26.0932 11.2331 26.093 10.1123 24.9751L5.54901 20.4232L24.2447 1.77426C25.3655 0.656301 27.1825 0.656301 28.3034 1.77426Z" fill="#194BFB"/>
<path d="M5.59299 20.3852L1.02966 15.8333C-0.0911044 14.7152 -0.0911044 12.9026 1.02966 11.7847L3.60302 9.21783C4.72378 8.0998 6.5409 8.0998 7.66166 9.21783L12.225 13.7698L5.59299 20.3852Z" fill="#436CFF"/>
<path d="M32.739 6.25131L37.3024 10.8032C38.4232 11.9212 38.4232 13.7338 37.3024 14.8518L34.729 17.4187C33.6083 18.5366 31.7912 18.5366 30.6703 17.4187L26.107 12.8668L32.739 6.25131Z" fill="#436CFF"/>
</svg>
