<svg width="147" height="32" viewBox="0 0 147 32" fill="none" xmlns="http://www.w3.org/2000/svg">
<path d="M24.6148 5.70463L28.448 9.53783L12.7436 25.2422C11.8022 26.1837 10.2758 26.1836 9.33434 25.2422L5.50115 21.409L21.2055 5.70463C22.147 4.76319 23.6733 4.76319 24.6148 5.70463Z" fill="#194BFB"/>
<path d="M5.53809 21.377L1.70489 17.5438C0.763447 16.6023 0.763447 15.0759 1.70489 14.1345L3.86651 11.9729C4.80795 11.0314 6.33433 11.0314 7.27577 11.9729L11.109 15.8061L5.53809 21.377Z" fill="#436CFF"/>
<path d="M28.3408 9.47479L32.174 13.308C33.1155 14.2494 33.1155 15.7758 32.174 16.7173L30.0124 18.8789C29.071 19.8203 27.5446 19.8203 26.6031 18.8789L22.7699 15.0457L28.3408 9.47479Z" fill="#436CFF"/>
<path d="M45.4187 16.18C44.832 15.98 44.2987 15.78 43.8187 15.58C43.3387 15.3667 42.9254 15.1133 42.5787 14.82C42.232 14.5267 41.9587 14.18 41.7587 13.78C41.572 13.3667 41.4787 12.8667 41.4787 12.28C41.4787 11.1467 41.912 10.24 42.7787 9.56C43.6587 8.88 44.8854 8.54 46.4587 8.54C47.032 8.54 47.5654 8.58 48.0587 8.66C48.552 8.74 48.972 8.86667 49.3187 9.04C49.6787 9.2 49.9587 9.41333 50.1587 9.68C50.3587 9.93333 50.4587 10.2333 50.4587 10.58C50.4587 10.9267 50.3787 11.2267 50.2187 11.48C50.0587 11.72 49.8654 11.9267 49.6387 12.1C49.3454 11.9133 48.952 11.7533 48.4587 11.62C47.9654 11.4733 47.4254 11.4 46.8387 11.4C46.2387 11.4 45.7987 11.4867 45.5187 11.66C45.2387 11.82 45.0987 12.0267 45.0987 12.28C45.0987 12.48 45.1854 12.6467 45.3587 12.78C45.532 12.9 45.792 13.0133 46.1387 13.12L47.1987 13.46C48.452 13.86 49.412 14.3733 50.0787 15C50.7587 15.6133 51.0987 16.4533 51.0987 17.52C51.0987 18.6533 50.652 19.5733 49.7587 20.28C48.8654 20.9733 47.552 21.32 45.8187 21.32C45.2054 21.32 44.632 21.2667 44.0987 21.16C43.5787 21.0667 43.1187 20.9267 42.7187 20.74C42.332 20.54 42.0254 20.3 41.7987 20.02C41.5854 19.7267 41.4787 19.3933 41.4787 19.02C41.4787 18.6333 41.592 18.3067 41.8187 18.04C42.0454 17.76 42.292 17.5467 42.5587 17.4C42.932 17.6933 43.3854 17.9467 43.9187 18.16C44.4654 18.3733 45.0587 18.48 45.6987 18.48C46.352 18.48 46.812 18.38 47.0787 18.18C47.3454 17.98 47.4787 17.7467 47.4787 17.48C47.4787 17.2133 47.372 17.0133 47.1587 16.88C46.9454 16.7333 46.6454 16.5933 46.2587 16.46L45.4187 16.18ZM58.2534 13.66C57.9201 13.66 57.6001 13.7133 57.2934 13.82C57.0001 13.9267 56.7401 14.0867 56.5134 14.3C56.3001 14.5 56.1267 14.7533 55.9934 15.06C55.8601 15.3667 55.7934 15.7267 55.7934 16.14C55.7934 16.9667 56.0267 17.5867 56.4934 18C56.9734 18.4133 57.5534 18.62 58.2334 18.62C58.6334 18.62 58.9801 18.5733 59.2734 18.48C59.5667 18.3867 59.8267 18.2867 60.0534 18.18C60.3201 18.3667 60.5201 18.5733 60.6534 18.8C60.7867 19.0133 60.8534 19.2733 60.8534 19.58C60.8534 20.1267 60.5934 20.5533 60.0734 20.86C59.5534 21.1533 58.8334 21.3 57.9134 21.3C57.0734 21.3 56.3134 21.18 55.6334 20.94C54.9534 20.6867 54.3667 20.34 53.8734 19.9C53.3934 19.4467 53.0201 18.9067 52.7534 18.28C52.4867 17.6533 52.3534 16.96 52.3534 16.2C52.3534 15.32 52.4934 14.5533 52.7734 13.9C53.0667 13.2333 53.4601 12.6867 53.9534 12.26C54.4467 11.8333 55.0134 11.5133 55.6534 11.3C56.3067 11.0867 56.9934 10.98 57.7134 10.98C58.6734 10.98 59.4134 11.1533 59.9334 11.5C60.4534 11.8467 60.7134 12.2933 60.7134 12.84C60.7134 13.0933 60.6534 13.3333 60.5334 13.56C60.4134 13.7733 60.2734 13.96 60.1134 14.12C59.8867 14.0133 59.6134 13.9133 59.2934 13.82C58.9734 13.7133 58.6267 13.66 58.2534 13.66ZM72.1586 20.98C72.0252 21.02 71.8119 21.06 71.5186 21.1C71.2386 21.14 70.9452 21.16 70.6386 21.16C70.3452 21.16 70.0786 21.14 69.8386 21.1C69.6119 21.06 69.4186 20.98 69.2586 20.86C69.0986 20.74 68.9719 20.58 68.8786 20.38C68.7986 20.1667 68.7586 19.8933 68.7586 19.56V15.12C68.7586 14.5733 68.6186 14.1933 68.3386 13.98C68.0719 13.7533 67.7386 13.64 67.3386 13.64C67.0719 13.64 66.8186 13.6733 66.5786 13.74C66.3386 13.8067 66.1452 13.8867 65.9986 13.98V20.98C65.8652 21.02 65.6519 21.06 65.3586 21.1C65.0786 21.14 64.7852 21.16 64.4786 21.16C64.1852 21.16 63.9186 21.14 63.6786 21.1C63.4519 21.06 63.2586 20.98 63.0986 20.86C62.9386 20.74 62.8119 20.58 62.7186 20.38C62.6386 20.1667 62.5986 19.8933 62.5986 19.56V7.96C62.7452 7.93333 62.9586 7.9 63.2386 7.86C63.5319 7.80667 63.8252 7.78 64.1186 7.78C64.4119 7.78 64.6719 7.8 64.8986 7.84C65.1386 7.88 65.3386 7.96 65.4986 8.08C65.6586 8.2 65.7786 8.36667 65.8586 8.58C65.9519 8.78 65.9986 9.04667 65.9986 9.38V11.34C66.1719 11.2733 66.4319 11.2 66.7786 11.12C67.1386 11.0267 67.5319 10.98 67.9586 10.98C69.2786 10.98 70.3052 11.3133 71.0386 11.98C71.7852 12.6333 72.1586 13.6133 72.1586 14.92V20.98ZM79.3978 21.32C78.6111 21.32 77.8778 21.2133 77.1978 21C76.5311 20.7733 75.9444 20.44 75.4378 20C74.9444 19.56 74.5511 19.0067 74.2578 18.34C73.9778 17.6733 73.8378 16.8933 73.8378 16C73.8378 15.12 73.9778 14.3667 74.2578 13.74C74.5511 13.1 74.9311 12.58 75.3978 12.18C75.8644 11.7667 76.3978 11.4667 76.9978 11.28C77.5978 11.08 78.2111 10.98 78.8378 10.98C79.5444 10.98 80.1844 11.0867 80.7578 11.3C81.3444 11.5133 81.8444 11.8067 82.2578 12.18C82.6844 12.5533 83.0111 13 83.2378 13.52C83.4778 14.04 83.5978 14.6067 83.5978 15.22C83.5978 15.6733 83.4711 16.02 83.2178 16.26C82.9644 16.5 82.6111 16.6533 82.1578 16.72L77.2178 17.46C77.3644 17.9 77.6644 18.2333 78.1178 18.46C78.5711 18.6733 79.0911 18.78 79.6778 18.78C80.2244 18.78 80.7378 18.7133 81.2178 18.58C81.7111 18.4333 82.1111 18.2667 82.4178 18.08C82.6311 18.2133 82.8111 18.4 82.9578 18.64C83.1044 18.88 83.1778 19.1333 83.1778 19.4C83.1778 20 82.8978 20.4467 82.3378 20.74C81.9111 20.9667 81.4311 21.12 80.8978 21.2C80.3644 21.28 79.8644 21.32 79.3978 21.32ZM78.8378 13.46C78.5178 13.46 78.2378 13.5133 77.9978 13.62C77.7711 13.7267 77.5844 13.8667 77.4378 14.04C77.2911 14.2 77.1778 14.3867 77.0978 14.6C77.0311 14.8 76.9911 15.0067 76.9778 15.22L80.3978 14.66C80.3578 14.3933 80.2111 14.1267 79.9578 13.86C79.7044 13.5933 79.3311 13.46 78.8378 13.46ZM84.8143 16.14C84.8143 15.26 84.9477 14.5 85.2143 13.86C85.481 13.2067 85.8477 12.6667 86.3143 12.24C86.7943 11.8133 87.3477 11.5 87.9743 11.3C88.6143 11.0867 89.301 10.98 90.0343 10.98C90.301 10.98 90.561 11.0067 90.8143 11.06C91.0677 11.1 91.2743 11.1533 91.4343 11.22V7.98C91.5677 7.94 91.781 7.9 92.0743 7.86C92.3677 7.80667 92.6677 7.78 92.9743 7.78C93.2677 7.78 93.5277 7.8 93.7543 7.84C93.9943 7.88 94.1943 7.96 94.3543 8.08C94.5143 8.2 94.6343 8.36667 94.7143 8.58C94.7943 8.78 94.8343 9.04667 94.8343 9.38V18.86C94.8343 19.4867 94.541 19.9867 93.9543 20.36C93.5677 20.6133 93.0677 20.8333 92.4543 21.02C91.841 21.22 91.1343 21.32 90.3343 21.32C89.4677 21.32 88.6877 21.2 87.9943 20.96C87.3143 20.72 86.7343 20.3733 86.2543 19.92C85.7877 19.4667 85.4277 18.9267 85.1743 18.3C84.9343 17.66 84.8143 16.94 84.8143 16.14ZM90.4943 13.64C89.7743 13.64 89.221 13.8467 88.8343 14.26C88.4477 14.6733 88.2543 15.3 88.2543 16.14C88.2543 16.9667 88.4343 17.5933 88.7943 18.02C89.1543 18.4333 89.6743 18.64 90.3543 18.64C90.5943 18.64 90.8077 18.6067 90.9943 18.54C91.1943 18.46 91.3477 18.3733 91.4543 18.28V13.88C91.1877 13.72 90.8677 13.64 90.4943 13.64ZM96.9531 11.42C97.0864 11.38 97.2931 11.34 97.5731 11.3C97.8664 11.26 98.1664 11.24 98.4731 11.24C98.7664 11.24 99.0264 11.26 99.2531 11.3C99.4931 11.34 99.6931 11.42 99.8531 11.54C100.013 11.66 100.133 11.8267 100.213 12.04C100.306 12.24 100.353 12.5067 100.353 12.84V17.14C100.353 17.6867 100.486 18.08 100.753 18.32C101.02 18.5467 101.406 18.66 101.913 18.66C102.22 18.66 102.466 18.6333 102.653 18.58C102.853 18.5267 103.006 18.4733 103.113 18.42V11.42C103.246 11.38 103.453 11.34 103.733 11.3C104.026 11.26 104.326 11.24 104.633 11.24C104.926 11.24 105.186 11.26 105.413 11.3C105.653 11.34 105.853 11.42 106.013 11.54C106.173 11.66 106.293 11.8267 106.373 12.04C106.466 12.24 106.513 12.5067 106.513 12.84V18.92C106.513 19.5867 106.233 20.0867 105.673 20.42C105.206 20.7133 104.646 20.9333 103.993 21.08C103.353 21.24 102.653 21.32 101.893 21.32C101.173 21.32 100.506 21.24 99.8931 21.08C99.2931 20.92 98.7731 20.6733 98.3331 20.34C97.8931 20.0067 97.5531 19.58 97.3131 19.06C97.0731 18.5267 96.9531 17.8867 96.9531 17.14V11.42ZM112.054 20.98C111.907 21.0067 111.687 21.04 111.394 21.08C111.114 21.1333 110.827 21.16 110.534 21.16C110.24 21.16 109.974 21.14 109.734 21.1C109.507 21.06 109.314 20.98 109.154 20.86C108.994 20.74 108.867 20.58 108.774 20.38C108.694 20.1667 108.654 19.8933 108.654 19.56V7.96C108.8 7.93333 109.014 7.9 109.294 7.86C109.587 7.80667 109.88 7.78 110.174 7.78C110.467 7.78 110.727 7.8 110.954 7.84C111.194 7.88 111.394 7.96 111.554 8.08C111.714 8.2 111.834 8.36667 111.914 8.58C112.007 8.78 112.054 9.04667 112.054 9.38V20.98ZM124.259 16.14C124.259 16.9667 124.133 17.7067 123.879 18.36C123.626 19 123.266 19.54 122.799 19.98C122.346 20.42 121.799 20.7533 121.159 20.98C120.519 21.2067 119.806 21.32 119.019 21.32C118.233 21.32 117.519 21.2 116.879 20.96C116.239 20.72 115.686 20.38 115.219 19.94C114.766 19.4867 114.413 18.94 114.159 18.3C113.906 17.66 113.779 16.94 113.779 16.14C113.779 15.3533 113.906 14.64 114.159 14C114.413 13.36 114.766 12.82 115.219 12.38C115.686 11.9267 116.239 11.58 116.879 11.34C117.519 11.1 118.233 10.98 119.019 10.98C119.806 10.98 120.519 11.1067 121.159 11.36C121.799 11.6 122.346 11.9467 122.799 12.4C123.266 12.84 123.626 13.38 123.879 14.02C124.133 14.66 124.259 15.3667 124.259 16.14ZM117.259 16.14C117.259 16.9533 117.413 17.58 117.719 18.02C118.039 18.4467 118.479 18.66 119.039 18.66C119.599 18.66 120.026 18.44 120.319 18C120.626 17.56 120.779 16.94 120.779 16.14C120.779 15.34 120.626 14.7267 120.319 14.3C120.013 13.86 119.579 13.64 119.019 13.64C118.459 13.64 118.026 13.86 117.719 14.3C117.413 14.7267 117.259 15.34 117.259 16.14ZM125.918 11.42C126.051 11.38 126.258 11.34 126.538 11.3C126.831 11.26 127.131 11.24 127.438 11.24C127.731 11.24 127.991 11.26 128.218 11.3C128.458 11.34 128.658 11.42 128.818 11.54C128.978 11.66 129.098 11.8267 129.178 12.04C129.271 12.24 129.318 12.5067 129.318 12.84V17.14C129.318 17.6867 129.451 18.08 129.718 18.32C129.985 18.5467 130.371 18.66 130.878 18.66C131.185 18.66 131.431 18.6333 131.618 18.58C131.818 18.5267 131.971 18.4733 132.078 18.42V11.42C132.211 11.38 132.418 11.34 132.698 11.3C132.991 11.26 133.291 11.24 133.598 11.24C133.891 11.24 134.151 11.26 134.378 11.3C134.618 11.34 134.818 11.42 134.978 11.54C135.138 11.66 135.258 11.8267 135.338 12.04C135.431 12.24 135.478 12.5067 135.478 12.84V18.92C135.478 19.5867 135.198 20.0867 134.638 20.42C134.171 20.7133 133.611 20.9333 132.958 21.08C132.318 21.24 131.618 21.32 130.858 21.32C130.138 21.32 129.471 21.24 128.858 21.08C128.258 20.92 127.738 20.6733 127.298 20.34C126.858 20.0067 126.518 19.58 126.278 19.06C126.038 18.5267 125.918 17.8867 125.918 17.14V11.42ZM145.759 18.1C145.759 19.1133 145.379 19.9067 144.619 20.48C143.859 21.0533 142.739 21.34 141.259 21.34C140.699 21.34 140.179 21.3 139.699 21.22C139.219 21.14 138.805 21.02 138.459 20.86C138.125 20.6867 137.859 20.4733 137.659 20.22C137.472 19.9667 137.379 19.6667 137.379 19.32C137.379 19 137.445 18.7333 137.579 18.52C137.712 18.2933 137.872 18.1067 138.059 17.96C138.445 18.1733 138.885 18.3667 139.379 18.54C139.885 18.7 140.465 18.78 141.119 18.78C141.532 18.78 141.845 18.72 142.059 18.6C142.285 18.48 142.399 18.32 142.399 18.12C142.399 17.9333 142.319 17.7867 142.159 17.68C141.999 17.5733 141.732 17.4867 141.359 17.42L140.759 17.3C139.599 17.0733 138.732 16.72 138.159 16.24C137.599 15.7467 137.319 15.0467 137.319 14.14C137.319 13.6467 137.425 13.2 137.639 12.8C137.852 12.4 138.152 12.0667 138.539 11.8C138.925 11.5333 139.385 11.3267 139.919 11.18C140.465 11.0333 141.065 10.96 141.719 10.96C142.212 10.96 142.672 11 143.099 11.08C143.539 11.1467 143.919 11.2533 144.239 11.4C144.559 11.5467 144.812 11.74 144.999 11.98C145.185 12.2067 145.279 12.48 145.279 12.8C145.279 13.1067 145.219 13.3733 145.099 13.6C144.992 13.8133 144.852 13.9933 144.679 14.14C144.572 14.0733 144.412 14.0067 144.199 13.94C143.985 13.86 143.752 13.7933 143.499 13.74C143.245 13.6733 142.985 13.62 142.719 13.58C142.465 13.54 142.232 13.52 142.019 13.52C141.579 13.52 141.239 13.5733 140.999 13.68C140.759 13.7733 140.639 13.9267 140.639 14.14C140.639 14.2867 140.705 14.4067 140.839 14.5C140.972 14.5933 141.225 14.68 141.599 14.76L142.219 14.9C143.499 15.1933 144.405 15.6 144.939 16.12C145.485 16.6267 145.759 17.2867 145.759 18.1Z" fill="#1a202c"/>
</svg>
